<svg xmlns="http://www.w3.org/2000/svg" style="width:0; height:0; visibility:hidden; position: absolute; top: -9999px; left: -9999px;">
    <symbol id="empty" viewBox="0 0 40 40">
        <path d="M20.021,40.000 C16.696,40.000 13.561,39.187 10.803,37.749 C7.797,38.359 1.374,40.000 1.374,40.000 C1.374,40.000 -0.308,40.159 0.042,38.667 C0.862,35.812 1.643,31.335 2.097,28.846 C0.781,26.179 0.042,23.176 0.042,20.000 C0.042,8.954 8.987,-0.000 20.021,-0.000 C31.055,-0.000 40.000,8.954 40.000,20.000 C40.000,31.046 31.055,40.000 20.021,40.000 ZM20.040,1.333 C9.752,1.333 1.412,9.691 1.412,20.000 C1.412,22.964 2.102,25.767 3.329,28.256 C2.906,30.579 2.177,34.758 1.412,37.422 C1.087,38.815 2.654,38.667 2.654,38.667 C2.654,38.667 8.643,37.135 11.446,36.565 C14.017,37.908 16.940,38.667 20.040,38.667 C30.328,38.667 38.668,30.309 38.668,20.000 C38.668,9.691 30.328,1.333 20.040,1.333 Z" class="cls-1"/> 
    </symbol></svg>